# xmcd
# Copyright (C) 1995-1998 Ti Kan
#
# Track frame offsets:
#       150
#       2419
#       18223
#       24110
#       41214
#       57400
#       65677
#       76078
#       91849
#       110358
#       129028
#       146852
#       157829
#       168697
#
# Disc length: 2534 seconds
#
# Revision: 0
# Processed by: cddbd v1.5.2PL0 Copyright (c) Steve Scherf et al.
# Submitted via: CD-Import v1.0
#
DISCID=a209e40e
DTITLE=Amos Corny - Raw And Unfinished
DYEAR=06
DGENRE=
TTITLE0=Good Evening
TTITLE1=Grandmaster Flash
TTITLE2=7j53
TTITLE3=Where Has All The Love Gone ?
TTITLE4=She's Hot
TTITLE5=One Night In Brussels
TTITLE6=Je Pense A Toi 
TTITLE7=Summer 99
TTITLE8=Could You Be Mine ?
TTITLE9=Planetarium Of Love
TTITLE10=Self Destruction
TTITLE11=Plans ( Without You )
TTITLE12=Body Rock
TTITLE13=Raw And Unfinished
EXTD=
EXTT0=
EXTT1=
EXTT2=
EXTT3=
EXTT4=
EXTT5=
EXTT6=
EXTT7=
EXTT8=
EXTT9=
EXTT10=
EXTT11=
EXTT12=
EXTT13=
PLAYORDER=
